<svg xmlns="http://www.w3.org/2000/svg" width="1200" height="630" viewBox="0 0 1200 630">
  <rect width="1200" height="630" fill="#0d0d1a"/>
  
  <!-- Background grid -->
  <defs>
    <pattern id="bgGrid" width="40" height="40" patternUnits="userSpaceOnUse">
      <line x1="40" y1="0" x2="40" y2="40" stroke="#00ff88" stroke-width="0.3" opacity="0.08"/>
      <line x1="0" y1="40" x2="40" y2="40" stroke="#00ff88" stroke-width="0.3" opacity="0.08"/>
    </pattern>
    <radialGradient id="centerGlow" cx="50%" cy="45%" r="40%">
      <stop offset="0%" stop-color="#00ff88" stop-opacity="0.08"/>
      <stop offset="100%" stop-color="#00ff88" stop-opacity="0"/>
    </radialGradient>
  </defs>
  <rect width="1200" height="630" fill="url(#bgGrid)"/>
  <rect width="1200" height="630" fill="url(#centerGlow)"/>
  
  <!-- Centered icon -->
  <g transform="translate(540.0, 215.0)">
    <g transform="scale(1.2)">
      <g>
        <line x1="48" y1="14" x2="48" y2="86" stroke="#00ff88" stroke-width="0.5" opacity="0.15"/>
        <line x1="58" y1="14" x2="58" y2="86" stroke="#00ff88" stroke-width="0.5" opacity="0.15"/>
        <line x1="68" y1="14" x2="68" y2="86" stroke="#00ff88" stroke-width="0.5" opacity="0.15"/>
        <line x1="78" y1="14" x2="78" y2="86" stroke="#00ff88" stroke-width="0.5" opacity="0.15"/>
        <line x1="88" y1="14" x2="88" y2="86" stroke="#00ff88" stroke-width="0.5" opacity="0.15"/>
        <line x1="38" y1="22" x2="94" y2="22" stroke="#00ff88" stroke-width="0.5" opacity="0.15"/>
        <line x1="38" y1="34" x2="94" y2="34" stroke="#00ff88" stroke-width="0.5" opacity="0.15"/>
        <line x1="38" y1="46" x2="94" y2="46" stroke="#00ff88" stroke-width="0.5" opacity="0.15"/>
        <line x1="38" y1="58" x2="94" y2="58" stroke="#00ff88" stroke-width="0.5" opacity="0.15"/>
        <line x1="38" y1="70" x2="94" y2="70" stroke="#00ff88" stroke-width="0.5" opacity="0.15"/>
        <line x1="38" y1="82" x2="94" y2="82" stroke="#00ff88" stroke-width="0.5" opacity="0.15"/>
      </g>
      <path d="M 8 18 L 88 18 M 26 18 L 26 82" fill="none" stroke="#ffffff" stroke-width="5" stroke-linecap="round" stroke-linejoin="round"/>
      <path d="M 38 50 L 46 48 L 56 74 L 72 30 L 88 10" fill="none" stroke="#00ff88" stroke-width="4" stroke-linecap="round" stroke-linejoin="round"/>
      <path d="M 82 8 L 90 8 L 90 16" fill="none" stroke="#00ff88" stroke-width="3.5" stroke-linecap="round" stroke-linejoin="round"/>
    </g>
  </g>
  
  <!-- Wordmark -->
  <text x="600.0" y="367.0" font-family="Arial Black, Arial, Helvetica, sans-serif" font-weight="900" font-size="56" fill="#ffffff" text-anchor="middle" letter-spacing="-1">Trad<tspan fill="#00ff88">Vue</tspan></text>
  
  <!-- Tagline -->
  <text x="600.0" y="397.0" font-family="Courier New, monospace" font-weight="700" font-size="13" fill="#00ff88" text-anchor="middle" opacity="0.6" letter-spacing="5">AI DRIVEN ALPHA</text>
  
  <!-- URL -->
  <text x="600.0" y="423.0" font-family="Courier New, monospace" font-size="11" fill="#ffffff" text-anchor="middle" opacity="0.25" letter-spacing="3">tradvue.com</text>
</svg>